<?xml version="1.0" encoding="UTF-8"?>
<!DOCTYPE svg PUBLIC "-//W3C//DTD SVG 1.1//EN" "http://www.w3.org/Graphics/SVG/1.1/DTD/svg11.dtd">
<!-- Creator: CorelDRAW X7 -->
<svg xmlns="http://www.w3.org/2000/svg" xml:space="preserve" width="152.568mm" height="39.1616mm" version="1.1" style="shape-rendering:geometricPrecision; text-rendering:geometricPrecision; image-rendering:optimizeQuality; fill-rule:evenodd; clip-rule:evenodd"
viewBox="0 0 15239 3911"
 xmlns:xlink="http://www.w3.org/1999/xlink">
 <defs>
  <style type="text/css">
   <![CDATA[
    .str0 {stroke:#0F3695;stroke-width:99.8803}
    .str1 {stroke:#4496C8;stroke-width:99.8803}
    .fil1 {fill:none}
    .fil0 {fill:#0F3695;fill-rule:nonzero}
   ]]>
  </style>
 </defs>
 <g id="Layer_x0020_1">
  <metadata id="CorelCorpID_0Corel-Layer"/>
  <g id="_2257786158576">
   <path class="fil0" d="M5467 1197l233 0 468 1352 469 -1352 225 0 -540 1572 -304 0 -551 -1572zm1838 633l889 0 0 -61c0,-147 -26,-247 -79,-300 -53,-53 -157,-79 -313,-79l-109 0c-156,0 -259,26 -311,79 -51,53 -77,153 -77,300l0 61zm391 960c-235,0 -399,-46 -493,-137 -93,-92 -140,-253 -140,-483l0 -373c0,-231 46,-392 140,-484 92,-92 256,-137 490,-137l109 0c235,0 400,45 493,137 94,92 141,253 141,484l0 238 -1131 1c-1,16 -2,34 -2,53 -1,19 -1,46 -1,81 0,163 26,271 77,326 52,56 156,83 314,83l109 0c140,0 238,-20 293,-60 54,-41 86,-111 95,-212l243 0c-12,171 -67,294 -165,370 -97,75 -252,113 -463,113l-109 0zm2191 -678l0 -257c0,-164 -38,-283 -114,-357 -76,-74 -198,-111 -365,-111 -153,0 -254,27 -304,82 -51,54 -76,181 -76,380l0 269c0,198 25,325 76,379 50,55 151,82 304,82 167,0 289,-37 365,-111 76,-74 114,-193 114,-356zm10 415c-38,92 -96,159 -175,201 -79,41 -186,62 -321,62 -225,0 -383,-46 -475,-139 -93,-94 -139,-254 -139,-481l0 -373c0,-228 46,-389 139,-482 92,-93 250,-139 475,-139 129,0 232,19 307,57 76,38 136,101 179,188l0 -875 233 0 0 2223 -223 0 0 -242zm1788 -415l0 -257c0,-164 -38,-283 -114,-357 -76,-74 -199,-111 -367,-111 -152,0 -254,27 -305,83 -51,55 -76,181 -76,379l0 269c0,197 25,323 76,378 51,56 153,83 305,83 168,0 291,-37 367,-111 76,-74 114,-193 114,-356zm232 -915l0 1554c0,231 -45,392 -136,484 -90,91 -250,136 -478,136l-107 0c-206,0 -356,-37 -450,-112 -95,-75 -149,-199 -162,-371l239 0c10,100 40,171 93,210 52,39 146,59 283,59l104 0c137,0 235,-22 294,-67 58,-45 88,-118 88,-220l0 -325c-44,87 -104,149 -180,188 -76,38 -179,57 -309,57 -225,0 -383,-46 -474,-139 -92,-92 -138,-253 -138,-481l0 -373c0,-229 46,-390 138,-482 91,-93 249,-139 474,-139 134,0 241,21 321,64 80,43 139,110 177,202l0 -245 223 0zm656 633l890 0 0 -61c0,-147 -26,-247 -79,-300 -53,-53 -157,-79 -313,-79l-110 0c-155,0 -258,26 -310,79 -52,53 -78,153 -78,300l0 61zm392 960c-235,0 -400,-46 -493,-137 -94,-92 -140,-253 -140,-483l0 -373c0,-231 46,-392 139,-484 93,-92 257,-137 490,-137l110 0c235,0 399,45 493,137 94,92 141,253 141,484l0 238 -1132 1c-1,16 -1,34 -2,53 0,19 -1,46 -1,81 0,163 26,271 78,326 52,56 156,83 313,83l110 0c140,0 237,-20 292,-60 55,-41 87,-111 95,-212l244 0c-12,171 -67,294 -165,370 -98,75 -252,113 -464,113l-108 0zm1151 -21l0 -1572 227 0 0 215c33,-82 84,-142 153,-179 70,-39 163,-57 278,-57 171,0 292,41 361,123 69,83 104,230 104,440l0 12 -236 0 0 -46c0,-126 -20,-210 -60,-254 -39,-43 -114,-64 -225,-64 -129,0 -222,36 -280,109 -57,74 -86,193 -86,359l0 914 -236 0z"/>
   <polygon class="fil1 str0" points="82,3420 1128,581 2476,1172 4507,83 4507,3082 2548,2647 "/>
   <polygon class="fil1 str0" points="312,3833 1357,994 2706,1585 4737,496 4737,3495 2778,3060 "/>
   <polygon class="fil1 str1" points="82,3420 1128,581 2476,1172 4507,83 4507,3082 2548,2647 "/>
   <polygon class="fil1 str0" points="312,3833 1357,994 2706,1585 4737,496 4737,3495 2778,3060 "/>
   <line class="fil1 str1" x1="2683" y1="1830" x2="2568" y2= "2404" />
  </g>
 </g>
</svg>
