<svg version="1.1" id="Layer_1" xmlns="http://www.w3.org/2000/svg" xmlns:xlink="http://www.w3.org/1999/xlink" x="0px" y="0px"
	 width="100%" viewBox="0 0 1803 463" enable-background="new 0 0 1803 463" xml:space="preserve">
<path fill="#FFFFFF" opacity="1.000000" stroke="none" 
	d="
M1804.000000,209.000000 
	C1804.000000,293.982727 1804.000000,378.965454 1804.000000,464.000000 
	C1213.637329,464.000000 623.274597,464.000000 32.590973,463.638367 
	C52.600643,456.975647 72.933533,450.681885 93.261215,444.371368 
	C115.441643,437.485718 137.639542,430.655273 159.789825,423.673828 
	C194.090302,412.862885 228.353683,401.934357 262.638885,391.074890 
	C283.553162,384.450500 304.467285,377.824982 325.414886,371.307190 
	C327.880524,370.540009 330.721619,369.674286 333.111237,370.175903 
	C351.249023,373.983582 369.322144,378.100891 387.406891,382.159668 
	C415.319000,388.424072 443.223816,394.721069 471.132690,400.999756 
	C497.621063,406.958862 524.104675,412.939209 550.604553,418.846619 
	C556.232422,420.101166 561.921570,421.080353 567.820801,422.232971 
	C567.820801,297.756409 567.820801,174.032120 567.820801,49.486382 
	C558.575745,54.461849 549.803162,59.183064 541.026489,63.441628 
	C541.014954,42.319317 541.007446,21.659658 541.000000,1.000000 
	C961.880371,1.000000 1382.760742,1.000000 1804.000000,1.000000 
	C1804.000000,63.028908 1804.000000,125.058502 1803.617676,187.374542 
	C1802.822266,184.421280 1802.690186,181.115082 1801.942139,177.954712 
	C1799.895874,169.310257 1797.690796,160.720596 1791.408081,153.865234 
	C1782.136597,143.748505 1769.863770,140.919022 1757.044800,140.146500 
	C1749.345093,139.682495 1741.527588,140.345123 1733.818237,141.080643 
	C1724.097168,142.008102 1715.129150,145.226669 1708.151367,152.427567 
	C1704.570923,156.122284 1701.420044,160.233093 1697.772705,164.510406 
	C1697.772705,156.875961 1697.772705,149.604919 1697.772705,142.280426 
	C1688.750488,142.280426 1680.023438,142.280426 1671.264038,142.280426 
	C1671.264038,204.595932 1671.264038,266.629791 1671.264038,328.742981 
	C1680.927734,328.742981 1690.325439,328.742981 1700.023193,328.742981 
	C1700.023193,326.693298 1700.023560,324.889038 1700.023193,323.084778 
	C1700.015747,286.610107 1699.769775,250.132721 1700.184082,213.662827 
	C1700.276855,205.499420 1701.754883,197.065170 1704.245972,189.284134 
	C1707.796265,178.194778 1715.445435,170.835327 1727.405762,167.821518 
	C1737.411743,165.300125 1747.248657,165.478241 1757.104370,167.170547 
	C1766.344971,168.757278 1772.724976,176.258408 1773.970703,185.971848 
	C1774.941650,193.543137 1775.627930,201.150955 1776.468140,209.000000 
	C1785.727539,209.000000 1794.863770,209.000000 1804.000000,209.000000 
M934.038330,242.003601 
	C955.955383,242.003601 977.872498,242.003601 1000.000000,242.003601 
	C1000.000000,230.874496 999.979370,220.395432 1000.005371,209.916473 
	C1000.036377,197.439194 998.335083,185.212769 993.935791,173.524002 
	C990.474121,164.326416 985.695984,156.101761 976.660034,150.852417 
	C964.682129,143.893982 951.546143,140.601898 938.136536,140.260330 
	C918.553650,139.761505 898.801575,138.331940 879.384949,142.974838 
	C866.173889,146.133896 854.410461,151.661285 847.121887,163.690781 
	C840.261536,175.013397 837.492188,187.811523 837.147461,200.820480 
	C836.596008,221.631653 836.704651,242.474274 837.136658,263.291077 
	C837.325195,272.378815 838.187988,281.619476 840.181885,290.466797 
	C843.890320,306.922089 852.857117,319.171844 869.558594,325.450836 
	C880.913818,329.719849 892.628845,331.148041 904.331970,331.777954 
	C922.716736,332.767456 941.235474,332.612885 959.286743,327.956879 
	C974.406067,324.057190 987.038391,316.385376 993.071838,301.283356 
	C996.483032,292.744904 998.267761,283.556580 1000.918518,274.189301 
	C989.854309,274.189301 980.070984,274.189301 970.166748,274.189301 
	C969.755493,276.236786 969.374878,278.127258 968.996155,280.018097 
	C966.858032,290.692719 961.796570,299.328247 950.816223,302.497040 
	C944.164490,304.416656 937.093384,305.799072 930.209717,305.803162 
	C917.045532,305.810944 903.793091,305.372894 890.743958,303.766296 
	C880.522400,302.507874 872.562561,296.737457 869.624268,286.060883 
	C868.427002,281.710419 867.367798,277.232544 867.029724,272.753448 
	C866.289124,262.941223 866.049316,253.091156 865.585999,242.834259 
	C876.444214,242.834259 886.250549,242.834259 896.977112,242.967545 
	C907.532593,242.985352 918.088379,243.042053 928.643372,242.976776 
	C930.136108,242.967545 931.625244,242.363831 934.038330,242.003601 
M1519.976196,242.967529 
	C1530.531982,242.985336 1541.087891,243.042038 1551.643188,242.976746 
	C1553.135986,242.967499 1554.625122,242.363846 1557.038330,242.003616 
	C1578.955688,242.003616 1600.872925,242.003616 1623.000000,242.003616 
	C1623.000000,230.873505 1623.075195,220.393600 1622.980591,209.915222 
	C1622.868286,197.478638 1621.587769,185.190506 1616.968506,173.512009 
	C1613.353394,164.372437 1608.704224,156.098190 1599.678467,150.854736 
	C1587.703491,143.897797 1574.564819,140.596878 1561.151855,140.259644 
	C1541.568359,139.767242 1521.816528,138.332077 1502.398804,142.973907 
	C1489.189453,146.131653 1477.422119,151.646057 1470.138306,163.679855 
	C1463.281006,175.008698 1460.491211,187.807693 1460.147095,200.824478 
	C1459.596680,221.635910 1459.704346,242.478683 1460.136719,263.295685 
	C1460.325562,272.384796 1461.186157,281.627838 1463.184448,290.475159 
	C1466.900391,306.927002 1475.867554,319.186798 1492.571655,325.455231 
	C1503.927979,329.716675 1515.643677,331.147827 1527.352295,331.778076 
	C1545.743286,332.767975 1564.264404,332.595795 1582.319214,327.953796 
	C1597.444702,324.064941 1610.052979,316.349304 1616.086914,301.261688 
	C1619.499023,292.729797 1621.262695,283.538696 1623.906006,274.157410 
	C1612.955811,274.157410 1603.322632,274.157410 1593.542114,274.157410 
	C1593.063477,275.281830 1592.468384,276.407043 1592.116943,277.603790 
	C1591.891113,278.372650 1592.136841,279.269135 1591.978394,280.070312 
	C1589.985718,290.145050 1585.607300,298.724457 1575.102417,301.835693 
	C1568.019043,303.933624 1560.540161,305.697083 1553.219116,305.772583 
	C1540.062500,305.908295 1526.804565,305.370880 1513.754517,303.767273 
	C1503.532349,302.511139 1495.560303,296.764679 1492.636719,286.067932 
	C1491.446289,281.712341 1490.365234,277.237366 1490.026611,272.756836 
	C1489.284790,262.944000 1489.049194,253.092880 1488.587769,242.834259 
	C1499.443115,242.834259 1509.249390,242.834259 1519.976196,242.967529 
M1040.995239,263.038483 
	C1040.460083,273.763611 1041.742432,284.317810 1045.077026,294.474457 
	C1049.012817,306.462952 1055.371460,316.648254 1067.211914,322.752747 
	C1079.988037,329.339691 1093.793213,331.421936 1107.712158,331.758667 
	C1118.086060,332.009613 1128.583984,330.456696 1138.899048,328.874756 
	C1149.222290,327.291504 1158.024780,322.314148 1164.549561,313.904297 
	C1167.102539,310.613800 1169.394775,307.120850 1172.216064,303.141235 
	C1172.216064,312.091553 1172.216064,320.369507 1172.216064,328.721649 
	C1181.235107,328.721649 1189.965698,328.721649 1198.705078,328.721649 
	C1198.705078,240.718597 1198.705078,152.994232 1198.705078,65.320694 
	C1189.341309,65.320694 1180.275879,65.320694 1170.688232,65.320694 
	C1170.688232,99.231682 1170.688232,132.822647 1170.688232,165.153519 
	C1165.958984,160.338959 1161.272827,154.633774 1155.659790,150.068146 
	C1146.764160,142.832565 1135.572021,140.903152 1124.642212,140.219162 
	C1110.714111,139.347549 1096.671875,139.411713 1082.902100,142.956573 
	C1067.201172,146.998535 1054.631592,154.539383 1047.848267,170.254395 
	C1042.338135,183.019547 1040.784180,196.243652 1040.182373,210.315247 
	C1040.118530,226.911194 1040.043213,243.507126 1040.031616,260.103119 
	C1040.031128,260.775452 1040.632935,261.448181 1040.995239,263.038483 
M1384.000244,144.689026 
	C1384.000244,151.976868 1384.000244,159.264709 1384.000244,165.913330 
	C1379.239014,160.842163 1375.086548,155.281708 1369.843506,151.082840 
	C1360.290039,143.432007 1348.496948,140.839569 1336.664551,140.185928 
	C1322.572876,139.407501 1308.385620,139.415527 1294.475952,142.975510 
	C1275.831909,147.747192 1262.625244,158.380157 1257.339844,177.363937 
	C1254.083862,189.058731 1252.622314,201.065796 1253.012451,213.234055 
	C1253.817139,238.327820 1250.650146,263.592804 1256.029053,288.487030 
	C1258.822632,301.415619 1264.484741,312.611908 1275.791626,320.405457 
	C1289.294067,329.712402 1304.925659,330.886383 1320.408081,331.788940 
	C1329.168701,332.299652 1338.128418,331.165955 1346.864502,329.869202 
	C1357.430054,328.300812 1367.236084,324.553253 1374.471191,316.028351 
	C1377.158569,312.862000 1379.828491,309.681091 1382.988403,305.935547 
	C1382.988403,320.136932 1383.744751,333.769104 1382.735596,347.269318 
	C1382.002441,357.077942 1377.313110,365.767181 1367.074463,369.277344 
	C1360.866699,371.405579 1354.329468,373.544464 1347.873413,373.770477 
	C1335.151978,374.215759 1322.357422,373.727966 1309.643066,372.879303 
	C1298.673218,372.147064 1289.485474,367.623749 1285.328979,356.552521 
	C1283.599976,351.946899 1282.865845,346.967773 1281.714722,342.301880 
	C1271.976440,342.301880 1262.550171,342.301880 1252.641724,342.301880 
	C1253.470337,347.630066 1253.999146,352.645905 1255.057373,357.547455 
	C1259.078247,376.171631 1269.339355,389.591522 1287.971313,395.474243 
	C1299.612305,399.149689 1311.615356,400.423096 1323.849731,400.047699 
	C1339.631836,399.563446 1355.491333,401.125732 1371.092285,397.060883 
	C1386.351562,393.085114 1398.490234,385.200806 1404.833618,370.386322 
	C1410.213257,357.822876 1411.768799,344.216736 1411.846191,330.778961 
	C1412.201050,269.130920 1412.003296,207.479630 1411.987915,145.829498 
	C1411.987549,144.573730 1411.793579,143.318008 1411.684814,141.999359 
	C1403.302612,141.999359 1395.308350,141.932693 1387.317871,142.076035 
	C1386.204956,142.096008 1385.110474,143.149841 1384.000244,144.689026 
M672.138306,141.999252 
	C664.161804,141.999252 656.185364,141.999252 647.500671,141.999252 
	C669.494263,204.734085 691.292358,266.911407 713.059326,328.999817 
	C724.403320,328.999817 735.069275,328.752655 745.713013,329.130219 
	C749.578918,329.267395 750.884644,327.534149 751.906311,324.512299 
	C758.922363,303.759979 765.936401,283.006836 773.026489,262.279724 
	C782.925171,233.341614 792.898254,204.429001 802.821289,175.499222 
	C806.603333,164.473022 810.334839,153.429520 814.223694,141.999344 
	C805.556946,141.999344 797.566284,142.126495 789.583496,141.931641 
	C786.717712,141.861694 785.780640,143.043045 784.919312,145.572876 
	C779.056458,162.792007 772.942261,179.925323 767.008789,197.120697 
	C758.607788,221.466751 750.312439,245.849228 741.930908,270.202026 
	C738.547791,280.031860 735.056458,289.824432 731.549988,299.817474 
	C730.846252,299.243134 730.445129,299.083344 730.352722,298.816559 
	C721.556763,273.426117 712.739563,248.042831 704.022888,222.625107 
	C695.298157,197.183823 686.675476,171.707550 678.007446,146.246811 
	C677.193237,143.855225 676.356140,141.486801 672.138306,141.999252 
z"/>
<path fill="#FFFFFF" opacity="1.000000" stroke="none" 
	d="
M0.999997,414.000000 
	C1.000000,276.395294 1.000000,138.790573 1.000000,1.000000 
	C180.024048,1.000000 359.048157,1.000000 538.380432,1.315348 
	C530.513428,6.053288 522.358948,10.514733 514.158081,14.889239 
	C502.213928,21.260561 490.208984,27.518259 478.278717,33.915298 
	C452.841492,47.554783 427.447540,61.274929 402.011658,74.916878 
	C390.080811,81.315712 378.070892,87.567078 366.137146,93.960579 
	C342.568024,106.587753 319.031647,119.275993 295.450531,131.880630 
	C294.794586,132.231247 293.670654,132.182877 292.956573,131.875427 
	C284.445953,128.211166 275.955414,124.499023 267.491943,120.726852 
	C255.778732,115.506310 244.136536,110.124466 232.386002,104.990067 
	C211.988800,96.077538 191.520569,87.327721 171.104355,78.458496 
	C159.174072,73.275719 147.246765,68.081856 135.409927,62.691349 
	C132.622284,61.421852 131.045425,61.879673 130.047760,64.612747 
	C118.256523,96.914742 106.564445,129.253220 94.672890,161.518204 
	C85.934540,185.227676 76.822083,208.799362 68.094879,232.512878 
	C60.133381,254.145813 52.569439,275.924866 44.644104,297.571350 
	C33.160309,328.937073 21.544310,360.254578 9.903302,391.562378 
	C7.099655,399.102600 3.976312,406.523956 0.999997,414.000000 
z"/>
<path fill="#0F3695" opacity="1.000000" stroke="none" 
	d="
M541.030579,63.904289 
	C549.803162,59.183064 558.575745,54.461849 567.820801,49.486382 
	C567.820801,174.032120 567.820801,297.756409 567.820801,422.232971 
	C561.921570,421.080353 556.232422,420.101166 550.604553,418.846619 
	C524.104675,412.939209 497.621063,406.958862 471.132690,400.999756 
	C443.223816,394.721069 415.319000,388.424072 387.406891,382.159668 
	C369.322144,378.100891 351.249023,373.983582 333.111237,370.175903 
	C330.721619,369.674286 327.880524,370.540009 325.414886,371.307190 
	C304.467285,377.824982 283.553162,384.450500 262.638885,391.074890 
	C228.353683,401.934357 194.090302,412.862885 159.789825,423.673828 
	C137.639542,430.655273 115.441643,437.485718 93.261215,444.371368 
	C72.933533,450.681885 52.600643,456.975647 32.135021,463.638367 
	C31.250000,464.000000 30.500000,464.000000 29.375376,463.602722 
	C36.626648,442.172455 44.252544,421.139435 52.042191,399.781494 
	C54.096989,394.603302 55.988037,389.750061 57.932709,384.509155 
	C57.993332,383.788361 57.910645,383.422028 58.020084,383.126862 
	C67.610641,357.257050 77.243073,331.402740 86.813644,305.525543 
	C99.227020,271.961975 111.631386,238.394943 123.965500,204.802185 
	C134.080063,177.254532 144.074707,149.662857 154.153061,122.101875 
	C155.639297,118.037491 157.294464,114.034874 158.883667,109.972473 
	C177.197739,118.114944 195.005402,126.061562 212.837891,133.952072 
	C229.377747,141.270615 245.926361,148.569962 262.503632,155.803192 
	C280.557892,163.680847 298.701691,171.356400 316.676208,179.410721 
	C319.853027,180.834244 322.178650,181.082367 325.274292,179.384827 
	C342.745331,169.804199 360.297028,160.368912 377.885773,151.005264 
	C390.752258,144.155594 403.781403,137.610611 416.626129,130.721207 
	C442.188873,117.010368 467.662140,103.132973 493.197479,89.370918 
	C504.744965,83.147507 516.352478,77.035431 528.201721,70.899994 
	C528.646729,70.888596 528.822754,70.850021 529.332275,70.729691 
	C533.454041,68.400047 537.242310,66.152176 541.030579,63.904289 
M539.270935,79.018791 
	C535.821594,81.015144 532.372253,83.011497 528.455078,85.188927 
	C528.280334,85.467384 528.105591,85.745842 527.199707,86.012306 
	C525.832092,86.827003 524.494019,87.696793 523.092407,88.448067 
	C504.666351,98.324440 486.234863,108.190788 467.797729,118.046432 
	C438.212158,133.861526 408.614258,149.653595 379.035370,165.481140 
	C361.032806,175.114197 343.073090,184.827591 325.032745,194.389069 
	C323.710785,195.089706 321.655487,195.451523 320.340820,194.941208 
	C314.486359,192.668762 308.765778,190.047867 303.018127,187.504669 
	C288.538910,181.097977 274.091980,174.617905 259.593903,168.254318 
	C238.911896,159.176407 218.210587,150.142044 197.487656,141.158020 
	C187.839050,136.975037 178.143967,132.895096 168.389648,128.967911 
	C167.580612,128.642181 165.437820,129.571075 165.126556,130.382141 
	C161.599609,139.571838 158.323364,148.857483 154.952576,158.107437 
	C147.229431,179.300949 139.552917,200.511703 131.743439,221.673401 
	C121.745796,248.764389 111.642067,275.816254 101.572487,302.880676 
	C94.812233,321.050446 87.958389,339.185822 81.297516,357.391876 
	C78.702858,364.483795 76.522736,371.727386 73.862709,379.557312 
	C71.629959,384.741333 69.397202,389.925323 67.017998,395.884369 
	C61.329941,411.811096 55.641880,427.737823 49.727615,444.297943 
	C63.164463,440.146484 75.650528,436.334076 88.108139,432.430847 
	C117.210861,423.312347 146.291977,414.124847 175.397629,405.015747 
	C191.720520,399.907257 208.099991,394.978821 224.409683,389.829010 
	C256.267151,379.769989 288.069397,369.535248 319.959869,359.582611 
	C324.537567,358.153961 329.699341,356.575378 334.210327,357.332672 
	C347.886658,359.628693 361.390564,362.973694 374.935364,366.026550 
	C402.799683,372.306885 430.640442,378.691650 458.503052,384.979614 
	C486.686920,391.340057 514.879944,397.660645 543.083862,403.931580 
	C547.232971,404.854126 551.464539,405.405914 555.691528,406.135040 
	C555.691528,293.959564 555.691528,182.591354 555.691528,71.194374 
	C550.657715,73.584633 545.888611,75.849197 540.634827,78.196365 
	C540.331970,78.358070 540.115845,78.597923 539.270935,79.018791 
z"/>
<path fill="#4191C5" opacity="1.000000" stroke="none" 
	d="
M541.026489,63.441643 
	C537.242310,66.152176 533.454041,68.400047 529.332031,70.278824 
	C528.998108,55.534328 529.025574,41.158775 528.947449,26.783791 
	C528.940857,25.568634 528.227295,24.357321 527.483337,23.142189 
	C517.485901,28.259045 507.838593,33.361584 498.210602,38.500320 
	C479.643738,48.409962 461.083313,58.331749 442.528534,68.263954 
	C423.828400,78.273956 405.153473,88.331139 386.439819,98.315796 
	C364.984741,109.763138 343.482971,121.122993 322.036987,132.587296 
	C315.710846,135.969040 309.624817,139.819244 303.196869,142.983688 
	C299.635040,144.737152 296.262756,148.132187 291.580536,145.998352 
	C285.371735,143.168793 279.152466,140.361877 272.924805,137.574066 
	C257.768616,130.789459 242.638626,123.944977 227.435608,117.266861 
	C209.884705,109.557426 192.262634,102.010071 174.679367,94.374123 
	C162.959290,89.284416 151.253006,84.162888 139.014755,78.826324 
	C100.196022,184.261215 61.504078,289.351715 22.411827,395.529510 
	C31.921057,392.505981 39.919834,389.902313 47.960579,387.435516 
	C51.219635,386.435699 54.570175,385.734100 57.879082,384.896790 
	C55.988037,389.750061 54.096989,394.603302 51.664345,399.774170 
	C36.828732,404.748840 22.552588,409.462219 8.222425,414.005219 
	C5.939290,414.729004 3.413569,414.687622 1.000001,415.000000 
	C1.000000,415.000000 1.000000,414.500000 0.999997,414.250000 
	C3.976312,406.523956 7.099655,399.102600 9.903302,391.562378 
	C21.544310,360.254578 33.160309,328.937073 44.644104,297.571350 
	C52.569439,275.924866 60.133381,254.145813 68.094879,232.512878 
	C76.822083,208.799362 85.934540,185.227676 94.672890,161.518204 
	C106.564445,129.253220 118.256523,96.914742 130.047760,64.612747 
	C131.045425,61.879673 132.622284,61.421852 135.409927,62.691349 
	C147.246765,68.081856 159.174072,73.275719 171.104355,78.458496 
	C191.520569,87.327721 211.988800,96.077538 232.386002,104.990067 
	C244.136536,110.124466 255.778732,115.506310 267.491943,120.726852 
	C275.955414,124.499023 284.445953,128.211166 292.956573,131.875427 
	C293.670654,132.182877 294.794586,132.231247 295.450531,131.880630 
	C319.031647,119.275993 342.568024,106.587753 366.137146,93.960579 
	C378.070892,87.567078 390.080811,81.315712 402.011658,74.916878 
	C427.447540,61.274929 452.841492,47.554783 478.278717,33.915298 
	C490.208984,27.518259 502.213928,21.260561 514.158081,14.889239 
	C522.358948,10.514733 530.513428,6.053288 538.844299,1.315348 
	C539.444458,1.000000 539.888916,1.000000 540.666626,1.000000 
	C541.007446,21.659658 541.014954,42.319317 541.026489,63.441643 
z"/>
<path fill="#0F3695" opacity="1.000000" stroke="none" 
	d="
M1804.000000,208.531464 
	C1794.863770,209.000000 1785.727539,209.000000 1776.468140,209.000000 
	C1775.627930,201.150955 1774.941650,193.543137 1773.970703,185.971848 
	C1772.724976,176.258408 1766.344971,168.757278 1757.104370,167.170547 
	C1747.248657,165.478241 1737.411743,165.300125 1727.405762,167.821518 
	C1715.445435,170.835327 1707.796265,178.194778 1704.245972,189.284134 
	C1701.754883,197.065170 1700.276855,205.499420 1700.184082,213.662827 
	C1699.769775,250.132721 1700.015747,286.610107 1700.023193,323.084778 
	C1700.023560,324.889038 1700.023193,326.693298 1700.023193,328.742981 
	C1690.325439,328.742981 1680.927734,328.742981 1671.264038,328.742981 
	C1671.264038,266.629791 1671.264038,204.595932 1671.264038,142.280426 
	C1680.023438,142.280426 1688.750488,142.280426 1697.772705,142.280426 
	C1697.772705,149.604919 1697.772705,156.875961 1697.772705,164.510406 
	C1701.420044,160.233093 1704.570923,156.122284 1708.151367,152.427567 
	C1715.129150,145.226669 1724.097168,142.008102 1733.818237,141.080643 
	C1741.527588,140.345123 1749.345093,139.682495 1757.044800,140.146500 
	C1769.863770,140.919022 1782.136597,143.748505 1791.408081,153.865234 
	C1797.690796,160.720596 1799.895874,169.310257 1801.942139,177.954712 
	C1802.690186,181.115082 1802.822266,184.421280 1803.617676,187.830490 
	C1804.000000,194.687637 1804.000000,201.375290 1804.000000,208.531464 
z"/>
<path fill="#FFFFFF" opacity="1.000000" stroke="none" 
	d="
M1.000001,415.468658 
	C3.413569,414.687622 5.939290,414.729004 8.222425,414.005219 
	C22.552588,409.462219 36.828732,404.748840 51.500595,400.099121 
	C44.252544,421.139435 36.626648,442.172455 29.000376,463.602722 
	C19.720020,464.000000 10.440042,464.000000 1.000000,464.000000 
	C1.000000,447.979401 1.000000,431.958374 1.000001,415.468658 
z"/>
<path fill="#0F3695" opacity="1.000000" stroke="none" 
	d="
M1384.003906,144.207062 
	C1385.110474,143.149841 1386.204956,142.096008 1387.317871,142.076035 
	C1395.308350,141.932693 1403.302612,141.999359 1411.684814,141.999359 
	C1411.793579,143.318008 1411.987549,144.573730 1411.987915,145.829498 
	C1412.003296,207.479630 1412.201050,269.130920 1411.846191,330.778961 
	C1411.768799,344.216736 1410.213257,357.822876 1404.833618,370.386322 
	C1398.490234,385.200806 1386.351562,393.085114 1371.092285,397.060883 
	C1355.491333,401.125732 1339.631836,399.563446 1323.849731,400.047699 
	C1311.615356,400.423096 1299.612305,399.149689 1287.971313,395.474243 
	C1269.339355,389.591522 1259.078247,376.171631 1255.057373,357.547455 
	C1253.999146,352.645905 1253.470337,347.630066 1252.641724,342.301880 
	C1262.550171,342.301880 1271.976440,342.301880 1281.714722,342.301880 
	C1282.865845,346.967773 1283.599976,351.946899 1285.328979,356.552521 
	C1289.485474,367.623749 1298.673218,372.147064 1309.643066,372.879303 
	C1322.357422,373.727966 1335.151978,374.215759 1347.873413,373.770477 
	C1354.329468,373.544464 1360.866699,371.405579 1367.074463,369.277344 
	C1377.313110,365.767181 1382.002441,357.077942 1382.735596,347.269318 
	C1383.744751,333.769104 1382.988403,320.136932 1382.988403,305.935547 
	C1379.828491,309.681091 1377.158569,312.862000 1374.471191,316.028351 
	C1367.236084,324.553253 1357.430054,328.300812 1346.864502,329.869202 
	C1338.128418,331.165955 1329.168701,332.299652 1320.408081,331.788940 
	C1304.925659,330.886383 1289.294067,329.712402 1275.791626,320.405457 
	C1264.484741,312.611908 1258.822632,301.415619 1256.029053,288.487030 
	C1250.650146,263.592804 1253.817139,238.327820 1253.012451,213.234055 
	C1252.622314,201.065796 1254.083862,189.058731 1257.339844,177.363937 
	C1262.625244,158.380157 1275.831909,147.747192 1294.475952,142.975510 
	C1308.385620,139.415527 1322.572876,139.407501 1336.664551,140.185928 
	C1348.496948,140.839569 1360.290039,143.432007 1369.843506,151.082840 
	C1375.086548,155.281708 1379.239014,160.842163 1384.000244,165.913330 
	C1384.000244,159.264709 1384.000244,151.976868 1384.003906,144.207062 
M1372.034668,181.555862 
	C1367.033936,175.414536 1360.508667,171.218811 1353.086792,169.169159 
	C1337.221802,164.787842 1321.048706,164.587540 1304.971558,168.108261 
	C1295.050293,170.280930 1288.031860,176.157669 1285.999756,186.476303 
	C1284.308105,195.065796 1282.210938,203.791901 1282.215820,212.456390 
	C1282.228271,234.107544 1282.929321,255.781372 1284.173706,277.398926 
	C1284.782837,287.979675 1288.902222,297.885162 1299.860474,301.698090 
	C1307.248535,304.268677 1315.387695,305.638855 1323.214111,305.739319 
	C1332.282104,305.855713 1341.505005,304.631104 1350.422852,302.818329 
	C1360.336670,300.803070 1369.042969,295.783630 1374.478149,286.878754 
	C1379.865967,278.051453 1382.781006,268.216797 1382.943726,257.826538 
	C1383.168091,243.504623 1383.321899,229.167038 1382.899658,214.854050 
	C1382.551758,203.066895 1380.195801,191.663834 1372.034668,181.555862 
z"/>
<path fill="#0F3695" opacity="1.000000" stroke="none" 
	d="
M1040.953857,209.879486 
	C1040.784180,196.243652 1042.338135,183.019547 1047.848267,170.254395 
	C1054.631592,154.539383 1067.201172,146.998535 1082.902100,142.956573 
	C1096.671875,139.411713 1110.714111,139.347549 1124.642212,140.219162 
	C1135.572021,140.903152 1146.764160,142.832565 1155.659790,150.068146 
	C1161.272827,154.633774 1165.958984,160.338959 1170.688232,165.153519 
	C1170.688232,132.822647 1170.688232,99.231682 1170.688232,65.320694 
	C1180.275879,65.320694 1189.341309,65.320694 1198.705078,65.320694 
	C1198.705078,152.994232 1198.705078,240.718597 1198.705078,328.721649 
	C1189.965698,328.721649 1181.235107,328.721649 1172.216064,328.721649 
	C1172.216064,320.369507 1172.216064,312.091553 1172.216064,303.141235 
	C1169.394775,307.120850 1167.102539,310.613800 1164.549561,313.904297 
	C1158.024780,322.314148 1149.222290,327.291504 1138.899048,328.874756 
	C1128.583984,330.456696 1118.086060,332.009613 1107.712158,331.758667 
	C1093.793213,331.421936 1079.988037,329.339691 1067.211914,322.752747 
	C1055.371460,316.648254 1049.012817,306.462952 1045.077026,294.474457 
	C1041.742432,284.317810 1040.460083,273.763611 1040.992432,262.103638 
	C1040.977783,244.072342 1040.965820,226.975906 1040.953857,209.879486 
M1115.438477,306.000153 
	C1123.353760,304.979309 1131.504150,304.814453 1139.125488,302.722717 
	C1148.833008,300.058502 1157.221680,294.611633 1162.721436,285.667755 
	C1169.073364,275.338074 1170.705444,263.641571 1170.799438,252.012970 
	C1170.930298,235.847641 1170.457275,219.588501 1168.778809,203.522461 
	C1167.093018,187.385162 1158.312500,175.575912 1142.469238,170.029022 
	C1127.378784,164.745697 1111.804443,164.921143 1096.305054,167.153107 
	C1084.973389,168.784882 1075.999756,174.504257 1073.339600,186.508621 
	C1071.620361,194.267334 1070.382324,202.264999 1070.144897,210.192017 
	C1069.661133,226.340820 1069.668823,242.523834 1070.135620,258.673615 
	C1070.379517,267.107727 1071.447632,275.628052 1073.250366,283.867188 
	C1074.398071,289.111786 1076.114136,294.433105 1081.315918,298.110474 
	C1091.453003,305.277100 1102.981445,305.278717 1115.438477,306.000153 
z"/>
<path fill="#0F3695" opacity="1.000000" stroke="none" 
	d="
M1519.055786,242.834259 
	C1509.249390,242.834259 1499.443115,242.834259 1488.587769,242.834259 
	C1489.049194,253.092880 1489.284790,262.944000 1490.026611,272.756836 
	C1490.365234,277.237366 1491.446289,281.712341 1492.636719,286.067932 
	C1495.560303,296.764679 1503.532349,302.511139 1513.754517,303.767273 
	C1526.804565,305.370880 1540.062500,305.908295 1553.219116,305.772583 
	C1560.540161,305.697083 1568.019043,303.933624 1575.102417,301.835693 
	C1585.607300,298.724457 1589.985718,290.145050 1591.978394,280.070312 
	C1592.136841,279.269135 1591.891113,278.372650 1592.116943,277.603790 
	C1592.468384,276.407043 1593.063477,275.281830 1593.542114,274.157410 
	C1603.322632,274.157410 1612.955811,274.157410 1623.906006,274.157410 
	C1621.262695,283.538696 1619.499023,292.729797 1616.086914,301.261688 
	C1610.052979,316.349304 1597.444702,324.064941 1582.319214,327.953796 
	C1564.264404,332.595795 1545.743286,332.767975 1527.352295,331.778076 
	C1515.643677,331.147827 1503.927979,329.716675 1492.571655,325.455231 
	C1475.867554,319.186798 1466.900391,306.927002 1463.184448,290.475159 
	C1461.186157,281.627838 1460.325562,272.384796 1460.136719,263.295685 
	C1459.704346,242.478683 1459.596680,221.635910 1460.147095,200.824478 
	C1460.491211,187.807693 1463.281006,175.008698 1470.138306,163.679855 
	C1477.422119,151.646057 1489.189453,146.131653 1502.398804,142.973907 
	C1521.816528,138.332077 1541.568359,139.767242 1561.151855,140.259644 
	C1574.564819,140.596878 1587.703491,143.897797 1599.678467,150.854736 
	C1608.704224,156.098190 1613.353394,164.372437 1616.968506,173.512009 
	C1621.587769,185.190506 1622.868286,197.478638 1622.980591,209.915222 
	C1623.075195,220.393600 1623.000000,230.873505 1623.000000,242.003616 
	C1600.872925,242.003616 1578.955688,242.003616 1556.101196,242.002441 
	C1545.707031,242.004944 1536.249268,241.951401 1526.793213,242.049820 
	C1524.211670,242.076691 1521.634766,242.560272 1519.055786,242.834259 
M1522.411377,167.001694 
	C1519.493408,167.337524 1516.323730,167.060867 1513.709595,168.135681 
	C1508.120239,170.433807 1501.084351,172.084671 1497.732056,176.401199 
	C1488.598022,188.162537 1488.867065,202.641113 1489.078247,216.780884 
	C1523.998779,216.780884 1558.273682,216.780884 1593.414307,216.780884 
	C1592.919189,208.337631 1593.093140,200.043167 1591.809692,191.980728 
	C1589.725098,178.886520 1582.200928,169.709061 1568.575928,168.209717 
	C1554.669067,166.679367 1540.594482,166.659409 1526.589478,166.066864 
	C1525.518311,166.021545 1524.417603,166.680557 1522.411377,167.001694 
z"/>
<path fill="#0F3695" opacity="1.000000" stroke="none" 
	d="
M896.056946,242.834259 
	C886.250549,242.834259 876.444214,242.834259 865.585999,242.834259 
	C866.049316,253.091156 866.289124,262.941223 867.029724,272.753448 
	C867.367798,277.232544 868.427002,281.710419 869.624268,286.060883 
	C872.562561,296.737457 880.522400,302.507874 890.743958,303.766296 
	C903.793091,305.372894 917.045532,305.810944 930.209717,305.803162 
	C937.093384,305.799072 944.164490,304.416656 950.816223,302.497040 
	C961.796570,299.328247 966.858032,290.692719 968.996155,280.018097 
	C969.374878,278.127258 969.755493,276.236786 970.166748,274.189301 
	C980.070984,274.189301 989.854309,274.189301 1000.918518,274.189301 
	C998.267761,283.556580 996.483032,292.744904 993.071838,301.283356 
	C987.038391,316.385376 974.406067,324.057190 959.286743,327.956879 
	C941.235474,332.612885 922.716736,332.767456 904.331970,331.777954 
	C892.628845,331.148041 880.913818,329.719849 869.558594,325.450836 
	C852.857117,319.171844 843.890320,306.922089 840.181885,290.466797 
	C838.187988,281.619476 837.325195,272.378815 837.136658,263.291077 
	C836.704651,242.474274 836.596008,221.631653 837.147461,200.820480 
	C837.492188,187.811523 840.261536,175.013397 847.121887,163.690781 
	C854.410461,151.661285 866.173889,146.133896 879.384949,142.974838 
	C898.801575,138.331940 918.553650,139.761505 938.136536,140.260330 
	C951.546143,140.601898 964.682129,143.893982 976.660034,150.852417 
	C985.695984,156.101761 990.474121,164.326416 993.935791,173.524002 
	C998.335083,185.212769 1000.036377,197.439194 1000.005371,209.916473 
	C999.979370,220.395432 1000.000000,230.874496 1000.000000,242.003601 
	C977.872498,242.003601 955.955383,242.003601 933.101257,242.002457 
	C922.707336,242.004959 913.249817,241.951401 903.793945,242.049805 
	C901.212524,242.076660 898.635803,242.560257 896.056946,242.834259 
M916.503235,165.999634 
	C907.998291,166.667648 899.403198,166.791397 891.017639,168.180267 
	C884.602966,169.242706 878.080627,171.262436 874.025391,177.231415 
	C865.846313,189.270432 866.139282,202.948822 865.974670,216.722885 
	C900.887268,216.722885 935.278992,216.722885 970.419617,216.722885 
	C969.932434,208.540497 970.051575,200.580032 968.860962,192.820541 
	C966.951782,180.378098 960.944580,170.754852 947.284851,168.852371 
	C937.415894,167.477859 927.433044,166.921097 916.503235,165.999634 
z"/>
<path fill="#0F3695" opacity="1.000000" stroke="none" 
	d="
M672.594910,141.999329 
	C676.356140,141.486801 677.193237,143.855225 678.007446,146.246811 
	C686.675476,171.707550 695.298157,197.183823 704.022888,222.625107 
	C712.739563,248.042831 721.556763,273.426117 730.352722,298.816559 
	C730.445129,299.083344 730.846252,299.243134 731.549988,299.817474 
	C735.056458,289.824432 738.547791,280.031860 741.930908,270.202026 
	C750.312439,245.849228 758.607788,221.466751 767.008789,197.120697 
	C772.942261,179.925323 779.056458,162.792007 784.919312,145.572876 
	C785.780640,143.043045 786.717712,141.861694 789.583496,141.931641 
	C797.566284,142.126495 805.556946,141.999344 814.223694,141.999344 
	C810.334839,153.429520 806.603333,164.473022 802.821289,175.499222 
	C792.898254,204.429001 782.925171,233.341614 773.026489,262.279724 
	C765.936401,283.006836 758.922363,303.759979 751.906311,324.512299 
	C750.884644,327.534149 749.578918,329.267395 745.713013,329.130219 
	C735.069275,328.752655 724.403320,328.999817 713.059326,328.999817 
	C691.292358,266.911407 669.494263,204.734085 647.500671,141.999252 
	C656.185364,141.999252 664.161804,141.999252 672.594910,141.999329 
z"/>
<path fill="#012980" opacity="1.000000" stroke="none" 
	d="
M1040.568115,210.097366 
	C1040.965820,226.975906 1040.977783,244.072342 1040.971924,261.644714 
	C1040.632935,261.448181 1040.031128,260.775452 1040.031616,260.103119 
	C1040.043213,243.507126 1040.118530,226.911194 1040.568115,210.097366 
z"/>
<path fill="#011A80" opacity="1.000000" stroke="none" 
	d="
M896.517029,242.900909 
	C898.635803,242.560257 901.212524,242.076660 903.793945,242.049805 
	C913.249817,241.951401 922.707336,242.004959 932.640137,242.018280 
	C931.625244,242.363831 930.136108,242.967545 928.643372,242.976776 
	C918.088379,243.042053 907.532593,242.985352 896.517029,242.900909 
z"/>
<path fill="#011A80" opacity="1.000000" stroke="none" 
	d="
M1519.515991,242.900909 
	C1521.634766,242.560272 1524.211670,242.076691 1526.793213,242.049820 
	C1536.249268,241.951401 1545.707031,242.004944 1555.640015,242.018311 
	C1554.625122,242.363846 1553.135986,242.967499 1551.643188,242.976746 
	C1541.087891,243.042038 1530.531982,242.985336 1519.515991,242.900909 
z"/>
<path fill="#FFFFFF" opacity="1.000000" stroke="none" 
	d="
M74.153793,378.901886 
	C76.522736,371.727386 78.702858,364.483795 81.297516,357.391876 
	C87.958389,339.185822 94.812233,321.050446 101.572487,302.880676 
	C111.642067,275.816254 121.745796,248.764389 131.743439,221.673401 
	C139.552917,200.511703 147.229431,179.300949 154.952576,158.107437 
	C158.323364,148.857483 161.599609,139.571838 165.126556,130.382141 
	C165.437820,129.571075 167.580612,128.642181 168.389648,128.967911 
	C178.143967,132.895096 187.839050,136.975037 197.487656,141.158020 
	C218.210587,150.142044 238.911896,159.176407 259.593903,168.254318 
	C274.091980,174.617905 288.538910,181.097977 303.018127,187.504669 
	C308.765778,190.047867 314.486359,192.668762 320.340820,194.941208 
	C321.655487,195.451523 323.710785,195.089706 325.032745,194.389069 
	C343.073090,184.827591 361.032806,175.114197 379.035370,165.481140 
	C408.614258,149.653595 438.212158,133.861526 467.797729,118.046432 
	C486.234863,108.190788 504.666351,98.324440 523.092407,88.448067 
	C524.494019,87.696793 525.832092,86.827003 527.594238,86.485504 
	C527.992554,175.429886 527.997253,263.901062 527.990967,352.372253 
	C527.990845,353.865936 527.857239,355.359650 527.373779,356.867554 
	C522.815430,356.157135 518.636902,355.580048 514.528198,354.683044 
	C493.660919,350.127411 472.809265,345.499939 451.956848,340.876465 
	C424.883331,334.873596 397.798340,328.921204 370.748535,322.813080 
	C350.811462,318.311157 330.944458,313.497253 310.992554,309.063934 
	C307.418701,308.269806 303.290039,307.659912 299.916351,308.655396 
	C279.080414,314.803650 258.392487,321.452789 237.644974,327.902008 
	C221.217743,333.008301 204.748520,337.980957 188.345993,343.164948 
	C158.335312,352.649780 128.372147,362.284882 98.362198,371.772034 
	C90.342873,374.307251 82.225929,376.533691 74.153793,378.901886 
M311.142395,286.870972 
	C311.761353,285.063171 312.583801,283.297333 312.966919,281.440857 
	C315.898193,267.237305 318.774445,253.022141 321.602722,238.797653 
	C322.930176,232.121445 324.113922,225.416687 325.405823,218.494324 
	C321.109161,217.554749 317.499634,216.765442 312.990631,215.779434 
	C308.342560,238.799347 303.728668,261.650085 299.032532,284.907990 
	C302.988312,285.634369 306.642914,286.305450 311.142395,286.870972 
z"/>
<path fill="#FFFFFF" opacity="1.000000" stroke="none" 
	d="
M57.932709,384.509155 
	C54.570175,385.734100 51.219635,386.435699 47.960579,387.435516 
	C39.919834,389.902313 31.921057,392.505981 22.411827,395.529510 
	C61.504078,289.351715 100.196022,184.261215 139.014755,78.826324 
	C151.253006,84.162888 162.959290,89.284416 174.679367,94.374123 
	C192.262634,102.010071 209.884705,109.557426 227.435608,117.266861 
	C242.638626,123.944977 257.768616,130.789459 272.924805,137.574066 
	C279.152466,140.361877 285.371735,143.168793 291.580536,145.998352 
	C296.262756,148.132187 299.635040,144.737152 303.196869,142.983688 
	C309.624817,139.819244 315.710846,135.969040 322.036987,132.587296 
	C343.482971,121.122993 364.984741,109.763138 386.439819,98.315796 
	C405.153473,88.331139 423.828400,78.273956 442.528534,68.263954 
	C461.083313,58.331749 479.643738,48.409962 498.210602,38.500320 
	C507.838593,33.361584 517.485901,28.259045 527.548157,23.598625 
	C527.958801,39.662342 527.945740,55.267597 527.932739,70.872841 
	C516.352478,77.035431 504.744965,83.147507 493.197479,89.370918 
	C467.662140,103.132973 442.188873,117.010368 416.626129,130.721207 
	C403.781403,137.610611 390.752258,144.155594 377.885773,151.005264 
	C360.297028,160.368912 342.745331,169.804199 325.274292,179.384827 
	C322.178650,181.082367 319.853027,180.834244 316.676208,179.410721 
	C298.701691,171.356400 280.557892,163.680847 262.503632,155.803192 
	C245.926361,148.569962 229.377747,141.270615 212.837891,133.952072 
	C195.005402,126.061562 177.197739,118.114944 158.883667,109.972473 
	C157.294464,114.034874 155.639297,118.037491 154.153061,122.101875 
	C144.074707,149.662857 134.080063,177.254532 123.965500,204.802185 
	C111.631386,238.394943 99.227020,271.961975 86.813644,305.525543 
	C77.243073,331.402740 67.610641,357.257050 58.020084,383.126862 
	C57.910645,383.422028 57.993332,383.788361 57.932709,384.509155 
z"/>
<path fill="#FFFFFF" opacity="1.000000" stroke="none" 
	d="
M541.119507,78.113770 
	C545.888611,75.849197 550.657715,73.584633 555.691528,71.194374 
	C555.691528,182.591354 555.691528,293.959564 555.691528,406.135040 
	C551.464539,405.405914 547.232971,404.854126 543.083862,403.931580 
	C514.879944,397.660645 486.686920,391.340057 458.503052,384.979614 
	C430.640442,378.691650 402.799683,372.306885 374.935364,366.026550 
	C361.390564,362.973694 347.886658,359.628693 334.210327,357.332672 
	C329.699341,356.575378 324.537567,358.153961 319.959869,359.582611 
	C288.069397,369.535248 256.267151,379.769989 224.409683,389.829010 
	C208.099991,394.978821 191.720520,399.907257 175.397629,405.015747 
	C146.291977,414.124847 117.210861,423.312347 88.108139,432.430847 
	C75.650528,436.334076 63.164463,440.146484 49.727615,444.297943 
	C55.641880,427.737823 61.329941,411.811096 67.471603,395.472107 
	C70.700188,394.205933 73.478630,393.363098 76.249603,392.496368 
	C104.868362,383.544678 133.491394,374.606537 162.102066,365.629059 
	C184.508881,358.598236 206.907181,351.540039 229.295990,344.452148 
	C250.303299,337.801605 271.281647,331.059509 292.300537,324.445953 
	C296.468842,323.134399 300.985901,320.786469 304.957062,321.401733 
	C316.132446,323.133209 327.105316,326.167847 338.161407,328.673920 
	C354.917786,332.472107 371.666595,336.304382 388.437531,340.037231 
	C410.744751,345.002380 433.065826,349.905640 455.389282,354.797363 
	C469.643097,357.920746 483.924652,360.918304 498.170471,364.077240 
	C511.133148,366.951691 524.064392,369.967773 537.406860,372.971771 
	C538.836731,373.175751 539.869080,373.329407 540.999268,373.497589 
	C540.999268,277.033203 540.998474,180.817413 541.004272,84.601624 
	C541.004395,82.439003 541.079468,80.276390 541.119507,78.113770 
z"/>
<path fill="#4292C6" opacity="1.000000" stroke="none" 
	d="
M537.009460,372.921417 
	C524.064392,369.967773 511.133148,366.951691 498.170471,364.077240 
	C483.924652,360.918304 469.643097,357.920746 455.389282,354.797363 
	C433.065826,349.905640 410.744751,345.002380 388.437531,340.037231 
	C371.666595,336.304382 354.917786,332.472107 338.161407,328.673920 
	C327.105316,326.167847 316.132446,323.133209 304.957062,321.401733 
	C300.985901,320.786469 296.468842,323.134399 292.300537,324.445953 
	C271.281647,331.059509 250.303299,337.801605 229.295990,344.452148 
	C206.907181,351.540039 184.508881,358.598236 162.102066,365.629059 
	C133.491394,374.606537 104.868362,383.544678 76.249603,392.496368 
	C73.478630,393.363098 70.700188,394.205933 67.544830,395.084595 
	C69.397202,389.925323 71.629959,384.741333 74.008255,379.229614 
	C82.225929,376.533691 90.342873,374.307251 98.362198,371.772034 
	C128.372147,362.284882 158.335312,352.649780 188.345993,343.164948 
	C204.748520,337.980957 221.217743,333.008301 237.644974,327.902008 
	C258.392487,321.452789 279.080414,314.803650 299.916351,308.655396 
	C303.290039,307.659912 307.418701,308.269806 310.992554,309.063934 
	C330.944458,313.497253 350.811462,318.311157 370.748535,322.813080 
	C397.798340,328.921204 424.883331,334.873596 451.956848,340.876465 
	C472.809265,345.499939 493.660919,350.127411 514.528198,354.683044 
	C518.636902,355.580048 522.815430,356.157135 527.647705,357.052368 
	C528.555237,355.673615 528.964722,354.124786 528.969360,352.574768 
	C529.016785,336.767059 529.002625,320.959137 528.997559,305.151276 
	C528.974121,231.770142 528.948059,158.388992 528.922852,85.007851 
	C532.372253,83.011497 535.821594,81.015144 539.633911,79.444199 
	C539.998657,175.409164 539.998535,270.948700 540.012634,366.488251 
	C540.013062,369.134674 540.449219,371.913177 537.009460,372.921417 
z"/>
<path fill="#3C87BF" opacity="1.000000" stroke="none" 
	d="
M537.406860,372.971771 
	C540.449219,371.913177 540.013062,369.134674 540.012634,366.488251 
	C539.998535,270.948700 539.998657,175.409164 539.991699,79.392776 
	C540.115845,78.597923 540.331970,78.358070 540.877197,78.155067 
	C541.079468,80.276390 541.004395,82.439003 541.004272,84.601624 
	C540.998474,180.817413 540.999268,277.033203 540.999268,373.497589 
	C539.869080,373.329407 538.836731,373.175751 537.406860,372.971771 
z"/>
<path fill="#808080" opacity="1.000000" stroke="none" 
	d="
M528.688965,85.098389 
	C528.948059,158.388992 528.974121,231.770142 528.997559,305.151276 
	C529.002625,320.959137 529.016785,336.767059 528.969360,352.574768 
	C528.964722,354.124786 528.555237,355.673615 528.059753,357.038147 
	C527.857239,355.359650 527.990845,353.865936 527.990967,352.372253 
	C527.997253,263.901062 527.992554,175.429886 527.959839,86.491501 
	C528.105591,85.745842 528.280334,85.467384 528.688965,85.098389 
z"/>
<path fill="#808080" opacity="1.000000" stroke="none" 
	d="
M528.201660,70.900009 
	C527.945740,55.267597 527.958801,39.662342 527.906982,23.600657 
	C528.227295,24.357321 528.940857,25.568634 528.947449,26.783791 
	C529.025574,41.158775 528.998108,55.534328 528.998657,70.360596 
	C528.822754,70.850021 528.646729,70.888596 528.201660,70.900009 
z"/>
<path fill="#FFFFFF" opacity="1.000000" stroke="none" 
	d="
M1372.301880,181.802734 
	C1380.195801,191.663834 1382.551758,203.066895 1382.899658,214.854050 
	C1383.321899,229.167038 1383.168091,243.504623 1382.943726,257.826538 
	C1382.781006,268.216797 1379.865967,278.051453 1374.478149,286.878754 
	C1369.042969,295.783630 1360.336670,300.803070 1350.422852,302.818329 
	C1341.505005,304.631104 1332.282104,305.855713 1323.214111,305.739319 
	C1315.387695,305.638855 1307.248535,304.268677 1299.860474,301.698090 
	C1288.902222,297.885162 1284.782837,287.979675 1284.173706,277.398926 
	C1282.929321,255.781372 1282.228271,234.107544 1282.215820,212.456390 
	C1282.210938,203.791901 1284.308105,195.065796 1285.999756,186.476303 
	C1288.031860,176.157669 1295.050293,170.280930 1304.971558,168.108261 
	C1321.048706,164.587540 1337.221802,164.787842 1353.086792,169.169159 
	C1360.508667,171.218811 1367.033936,175.414536 1372.301880,181.802734 
z"/>
<path fill="#FFFFFF" opacity="1.000000" stroke="none" 
	d="
M1114.958496,306.000122 
	C1102.981445,305.278717 1091.453003,305.277100 1081.315918,298.110474 
	C1076.114136,294.433105 1074.398071,289.111786 1073.250366,283.867188 
	C1071.447632,275.628052 1070.379517,267.107727 1070.135620,258.673615 
	C1069.668823,242.523834 1069.661133,226.340820 1070.144897,210.192017 
	C1070.382324,202.264999 1071.620361,194.267334 1073.339600,186.508621 
	C1075.999756,174.504257 1084.973389,168.784882 1096.305054,167.153107 
	C1111.804443,164.921143 1127.378784,164.745697 1142.469238,170.029022 
	C1158.312500,175.575912 1167.093018,187.385162 1168.778809,203.522461 
	C1170.457275,219.588501 1170.930298,235.847641 1170.799438,252.012970 
	C1170.705444,263.641571 1169.073364,275.338074 1162.721436,285.667755 
	C1157.221680,294.611633 1148.833008,300.058502 1139.125488,302.722717 
	C1131.504150,304.814453 1123.353760,304.979309 1114.958496,306.000122 
z"/>
<path fill="#FFFFFF" opacity="1.000000" stroke="none" 
	d="
M1522.870972,167.006943 
	C1524.417603,166.680557 1525.518311,166.021545 1526.589478,166.066864 
	C1540.594482,166.659409 1554.669067,166.679367 1568.575928,168.209717 
	C1582.200928,169.709061 1589.725098,178.886520 1591.809692,191.980728 
	C1593.093140,200.043167 1592.919189,208.337631 1593.414307,216.780884 
	C1558.273682,216.780884 1523.998779,216.780884 1489.078247,216.780884 
	C1488.867065,202.641113 1488.598022,188.162537 1497.732056,176.401199 
	C1501.084351,172.084671 1508.120239,170.433807 1513.709595,168.135681 
	C1516.323730,167.060867 1519.493408,167.337524 1522.870972,167.006943 
z"/>
<path fill="#FFFFFF" opacity="1.000000" stroke="none" 
	d="
M917.002075,165.999634 
	C927.433044,166.921097 937.415894,167.477859 947.284851,168.852371 
	C960.944580,170.754852 966.951782,180.378098 968.860962,192.820541 
	C970.051575,200.580032 969.932434,208.540497 970.419617,216.722885 
	C935.278992,216.722885 900.887268,216.722885 865.974670,216.722885 
	C866.139282,202.948822 865.846313,189.270432 874.025391,177.231415 
	C878.080627,171.262436 884.602966,169.242706 891.017639,168.180267 
	C899.403198,166.791397 907.998291,166.667648 917.002075,165.999634 
z"/>
<path fill="#4395C7" opacity="1.000000" stroke="none" 
	d="
M310.719971,286.923767 
	C306.642914,286.305450 302.988312,285.634369 299.032532,284.907990 
	C303.728668,261.650085 308.342560,238.799347 312.990631,215.779434 
	C317.499634,216.765442 321.109161,217.554749 325.405823,218.494324 
	C324.113922,225.416687 322.930176,232.121445 321.602722,238.797653 
	C318.774445,253.022141 315.898193,267.237305 312.966919,281.440857 
	C312.583801,283.297333 311.761353,285.063171 310.719971,286.923767 
z"/>
</svg>